<svg xmlns="http://www.w3.org/2000/svg" width="186" height="168" fill="none"><path fill="#6ECDA2" d="M120.211 147.341h38.421c.856 0 1.644-.468 2.055-1.219l21.191-38.799-38.094-.91-23.573 40.928ZM146.361 77.326l-9.2 16.475a2.34 2.34 0 0 0 .547 2.942l1.237 1.03h36.119a2.139 2.139 0 0 1-.557-2.67l9.386-17.776h-37.532ZM143.147 58.858l-3.341 5.89a2.34 2.34 0 0 0 .345 2.776l1.136 1.186h38.32l-1.165-1.409a2.342 2.342 0 0 1-.394-2.3l2.255-6.143h-37.156ZM130.489 33.132l-3.908 5.855a2.341 2.341 0 0 0 .641 3.243l.795.535 37.468.112-.979-.699a2.342 2.342 0 0 1-.654-3.101l3.527-5.945h-36.89Z"/><path fill="#150F1B" d="M18.849 135.808a2.343 2.343 0 0 0 .73 2.953l35.116 25.151a2.341 2.341 0 0 0 3.263-.534l4.34-6.021a2.341 2.341 0 0 1 3.198-.58l14.992 9.981a2.341 2.341 0 0 0 3.187-.566l4.808-6.571a2.342 2.342 0 0 1 3.13-.604l5.414 3.379a2.342 2.342 0 0 0 3.297-.866l9.698-17.811a2.343 2.343 0 0 1 3.335-.842l6.854 4.464 23.573-40.928.812-1.41a2.341 2.341 0 0 0-.531-2.969l-5.12-4.261-1.237-1.03a2.34 2.34 0 0 1-.547-2.942l9.2-16.475.327-.585a2.342 2.342 0 0 0-.354-2.761l-5.047-5.27-1.136-1.186a2.34 2.34 0 0 1-.345-2.776l3.341-5.89 1.362-2.4a2.342 2.342 0 0 0-.73-3.098l-15.762-10.595-.795-.535a2.341 2.341 0 0 1-.641-3.243l3.908-5.855.563-.844a2.341 2.341 0 0 0-.584-3.204L93.671 2.73l-6.439 8.037a2.342 2.342 0 0 1-3.163.46l-14.26-9.908a2.342 2.342 0 0 0-3.241.56l-5.17 7.228a2.342 2.342 0 0 1-3.165.611L52.449 6.02a2.342 2.342 0 0 0-3.31.838L39.516 24.22a2.342 2.342 0 0 1-3.4.777l-5.088-3.6a2.342 2.342 0 0 0-3.407.788L4.506 64.448a2.342 2.342 0 0 0 .687 3.025l6.33 4.552a2.342 2.342 0 0 1 .644 3.102L1.107 93.645a2.342 2.342 0 0 0 .65 3.108l7.49 5.342a2.342 2.342 0 0 1 .701 3.018l-3.481 6.456a2.342 2.342 0 0 0 .744 3.048l14.902 10.133c.97.66 1.303 1.936.778 2.985l-4.042 8.073Z"/><path fill="#150F1B" d="M144.065 102.034c.876.729 1.1 1.982.531 2.969l-.812 1.41 38.094.91.619-1.134a2.342 2.342 0 0 0-.594-2.952l-6.839-5.464h-36.119l5.12 4.261ZM146.334 73.98c.712.742.855 1.863.354 2.761l-.327.585h37.532l.377-.714a2.341 2.341 0 0 0-.266-2.586l-4.397-5.316h-38.32l5.047 5.27ZM143.779 53.36a2.342 2.342 0 0 1 .73 3.099l-1.362 2.4h37.156l.959-2.612c.364-.99.02-2.1-.838-2.713l-14.939-10.657-37.468-.112 15.762 10.595ZM93.67 2.729l36.798 26.355a2.341 2.341 0 0 1 .584 3.204l-.563.844h36.89l.533-.898a2.342 2.342 0 0 0-.632-3.086L131.757 3.18a2.346 2.346 0 0 0-1.382-.451H93.671Z"/><path stroke="#6ECDA2" d="m120.211 147.341-6.854-4.464a2.343 2.343 0 0 0-3.335.842l-9.698 17.811a2.342 2.342 0 0 1-3.297.866l-5.414-3.379a2.342 2.342 0 0 0-3.13.604l-4.808 6.571a2.341 2.341 0 0 1-3.188.566l-14.99-9.981a2.341 2.341 0 0 0-3.198.58l-4.34 6.021a2.341 2.341 0 0 1-3.264.534l-35.116-25.151a2.343 2.343 0 0 1-.73-2.953l4.042-8.073a2.342 2.342 0 0 0-.778-2.985L7.211 114.617a2.342 2.342 0 0 1-.744-3.048l3.481-6.456a2.342 2.342 0 0 0-.701-3.018l-7.49-5.342a2.342 2.342 0 0 1-.65-3.108l11.06-18.518a2.342 2.342 0 0 0-.643-3.102l-6.33-4.552a2.342 2.342 0 0 1-.688-3.025l23.115-42.263a2.342 2.342 0 0 1 3.407-.788l5.087 3.6a2.342 2.342 0 0 0 3.4-.777L49.14 6.858a2.342 2.342 0 0 1 3.31-.838l5.784 3.697a2.342 2.342 0 0 0 3.166-.61l5.169-7.228a2.342 2.342 0 0 1 3.24-.561l14.26 9.907a2.342 2.342 0 0 0 3.165-.459L93.67 2.73m26.54 144.612h38.421c.856 0 1.644-.468 2.055-1.219l21.191-38.799m-61.667 40.018 23.573-40.928M93.671 2.729l36.797 26.355a2.341 2.341 0 0 1 .584 3.204l-.563.844M93.671 2.73h36.704c.496 0 .98.158 1.382.45l35.523 25.969a2.342 2.342 0 0 1 .632 3.085l-.533.9m-23.595 73.28.812-1.41a2.341 2.341 0 0 0-.531-2.969l-5.12-4.261m4.839 8.64 38.094.91m0 0 .619-1.134a2.342 2.342 0 0 0-.594-2.952l-6.839-5.464m-28.703-20.447-9.2 16.475a2.34 2.34 0 0 0 .547 2.942l1.237 1.03m7.416-20.447.327-.585a2.342 2.342 0 0 0-.354-2.761l-5.047-5.27m5.074 8.617h37.532m0 0-9.386 17.777a2.139 2.139 0 0 0 .557 2.669m8.829-20.447.377-.714a2.341 2.341 0 0 0-.266-2.586l-4.397-5.316m-36.46-9.851-3.341 5.89a2.34 2.34 0 0 0 .345 2.775l1.136 1.186m1.86-9.851 1.362-2.4a2.342 2.342 0 0 0-.73-3.1l-15.762-10.594m15.13 16.093h37.156m0 0-2.255 6.143a2.342 2.342 0 0 0 .394 2.3l1.165 1.409m.696-9.851.959-2.612c.364-.99.02-2.1-.838-2.713l-14.939-10.657m-34.996-9.745-3.908 5.855a2.341 2.341 0 0 0 .641 3.243l.795.535m2.472-9.633h36.89m0 0-3.527 5.945a2.342 2.342 0 0 0 .654 3.101l.979.699m-26.54 54.896h36.119M141.287 68.71h38.32m-51.59-25.945 37.468.112"/><rect width="11.485" height="37.093" x=".171" y=".686" fill="#6ECDA2" stroke="#6ECDA2" rx="1.842" transform="rotate(30.967 -53.172 217.47) skewX(-.065)"/><rect width="11.485" height="37.093" x=".171" y=".686" fill="#6ECDA2" stroke="#6ECDA2" rx="1.842" transform="rotate(30.967 -29.214 151.669) skewX(-.065)"/><mask id="path-5-inside-1_464_148" fill="#fff"><path fill-rule="evenodd" d="M37.231 78.403a2.342 2.342 0 0 1 3.212-.8l6.69 4.014a2.342 2.342 0 0 1 .8 3.215l-3.712 6.171a2.342 2.342 0 0 0 .648 3.115L79.39 118.7a2.341 2.341 0 0 0 3.365-.7l3.654-6.075a2.342 2.342 0 0 1 3.212-.8l6.69 4.014a2.342 2.342 0 0 1 .801 3.215l-4.018 6.679a2.342 2.342 0 0 1-3.212.8l-6.657-3.995a2.342 2.342 0 0 0-3.111.648l-4.163 5.83a2.341 2.341 0 0 1-3.264.547l-34.869-24.831a2.341 2.341 0 0 1-.547-3.268l3.781-5.296a2.342 2.342 0 0 0-.7-3.369l-6.336-3.802a2.342 2.342 0 0 1-.802-3.215l4.018-6.679Z" clip-rule="evenodd"/></mask><path fill="#6ECDA2" fill-rule="evenodd" d="M37.231 78.403a2.342 2.342 0 0 1 3.212-.8l6.69 4.014a2.342 2.342 0 0 1 .8 3.215l-3.712 6.171a2.342 2.342 0 0 0 .648 3.115L79.39 118.7a2.341 2.341 0 0 0 3.365-.7l3.654-6.075a2.342 2.342 0 0 1 3.212-.8l6.69 4.014a2.342 2.342 0 0 1 .801 3.215l-4.018 6.679a2.342 2.342 0 0 1-3.212.8l-6.657-3.995a2.342 2.342 0 0 0-3.111.648l-4.163 5.83a2.341 2.341 0 0 1-3.264.547l-34.869-24.831a2.341 2.341 0 0 1-.547-3.268l3.781-5.296a2.342 2.342 0 0 0-.7-3.369l-6.336-3.802a2.342 2.342 0 0 1-.802-3.215l4.018-6.679Z" clip-rule="evenodd"/><path fill="#6ECDA2" d="m34.015 88.297-.515.858.515-.858Zm-.802-3.215-.857-.516.857.516Zm7.137 7.017.515-.857-.515.857Zm-2.533 11.933-.58.815.58-.815Zm-.547-3.268-.814-.581.814.581Zm38.68 27.552.814.582-.814-.582Zm-3.264.547-.58.815.58-.815Zm10.538-7.025.514-.857-.514.857Zm-3.111.648-.814-.582.814.582Zm12.98 2.547.857.515-.857-.515Zm4.018-6.679-.857-.515.857.515Zm-10.703-6.429.857.516-.857-.516Zm3.212-.8.514-.858-.514.858ZM79.389 118.7l-.58.815.58-.815Zm3.365-.7.857.515-.857-.515ZM44.869 94.118l-.58.814.58-.814Zm2.778-13.358-6.69-4.015-1.029 1.715 6.69 4.015 1.029-1.715Zm-2.569 10.759 3.713-6.171-1.714-1.031-3.713 6.17 1.714 1.032Zm-.789 3.413 34.52 24.583 1.16-1.63-34.52-24.582-1.16 1.63Zm41.262 16.478-3.654 6.074 1.714 1.031 3.654-6.074-1.714-1.031Zm11.273 2.872-6.69-4.015-1.029 1.715 6.69 4.014 1.029-1.714Zm-2.874 11.266 4.018-6.678-1.714-1.031-4.018 6.678 1.714 1.031Zm-11.24-2.852 6.657 3.995 1.029-1.715-6.658-3.995-1.029 1.715Zm-3.41-.792-4.164 5.831 1.628 1.163 4.163-5.831-1.628-1.163Zm-6.034 6.145-34.869-24.831-1.16 1.629 34.869 24.831 1.16-1.629Zm-35.182-26.704 3.781-5.296-1.628-1.162-3.781 5.296 1.628 1.162ZM33.5 89.155l6.336 3.802 1.029-1.715-6.336-3.802-1.029 1.715Zm2.874-11.267-4.018 6.678 1.714 1.031 4.018-6.678-1.714-1.031ZM34.53 87.44a1.342 1.342 0 0 1-.46-1.843l-1.713-1.03a3.342 3.342 0 0 0 1.144 4.588l1.03-1.715Zm7.336 8.609a3.342 3.342 0 0 0-1-4.807l-1.03 1.715c.672.403.857 1.292.402 1.93l1.628 1.162Zm-3.468 7.169a1.342 1.342 0 0 1-.313-1.873l-1.628-1.162a3.342 3.342 0 0 0 .781 4.664l1.16-1.629Zm36.74 24.517a1.342 1.342 0 0 1-1.871.314l-1.16 1.629a3.343 3.343 0 0 0 4.658-.78l-1.628-1.163Zm8.601-6.754a3.341 3.341 0 0 0-4.439.923l1.628 1.163a1.341 1.341 0 0 1 1.782-.371l1.03-1.715Zm8.498 3.536a1.341 1.341 0 0 1-1.84.459l-1.03 1.715a3.342 3.342 0 0 0 4.584-1.143l-1.714-1.031Zm3.559-8.521c.636.382.841 1.207.46 1.843l1.713 1.031a3.341 3.341 0 0 0-1.144-4.588l-1.03 1.714Zm-8.53-3.555a1.341 1.341 0 0 1 1.84-.459l1.03-1.715a3.342 3.342 0 0 0-4.584 1.143l1.714 1.031Zm-8.456 7.074a3.342 3.342 0 0 0 4.802-1l-1.714-1.031a1.341 1.341 0 0 1-1.928.401l-1.16 1.63ZM43.364 90.487a3.342 3.342 0 0 0 .925 4.445l1.16-1.629a1.342 1.342 0 0 1-.37-1.784l-1.715-1.032Zm-2.407-13.742a3.342 3.342 0 0 0-4.583 1.143l1.714 1.031a1.342 1.342 0 0 1 1.84-.459l1.03-1.715Zm5.66 5.73c.637.381.842 1.206.46 1.842l1.714 1.03a3.342 3.342 0 0 0-1.144-4.587l-1.03 1.715Z" mask="url(#path-5-inside-1_464_148)"/></svg>