<svg xmlns="http://www.w3.org/2000/svg" width="218" height="205" fill="none"><path fill="#ED632B" d="m67.734 158.074-37.505-8.336a2.339 2.339 0 0 1-1.742-1.637l-12.258-42.522 37.384 7.376 14.12 45.119ZM57.416 83.965l5.403 18.103a2.342 2.342 0 0 1-1.17 2.751l-1.435.74-35.259-7.836a2.142 2.142 0 0 0 1.123-2.487l-5.3-19.414 36.638 8.143ZM64.565 66.61l1.984 6.486a2.342 2.342 0 0 1-.939 2.633l-1.369.914-37.407-8.313 1.445-1.126a2.342 2.342 0 0 0 .882-2.157l-.867-6.497 36.271 8.06ZM82.51 44.211l2.545 6.575a2.342 2.342 0 0 1-1.328 3.025l-.896.352-36.6-8.02 1.111-.471a2.342 2.342 0 0 0 1.31-2.884l-2.153-6.58 36.012 8.003Z"/><path fill="#150F1B" d="M169.188 168.796a2.342 2.342 0 0 1-1.352 2.722l-39.745 16.966a2.341 2.341 0 0 1-3.071-1.23l-2.929-6.825a2.341 2.341 0 0 0-2.997-1.261l-16.799 6.503a2.343 2.343 0 0 1-2.991-1.246l-3.266-7.464a2.34 2.34 0 0 0-2.926-1.269l-6.015 2.127a2.341 2.341 0 0 1-3.032-1.562l-5.599-19.513a2.343 2.343 0 0 0-3.074-1.546l-7.658 2.876-14.121-45.119-.488-1.559a2.342 2.342 0 0 1 1.162-2.781l5.927-3.056 1.434-.74a2.342 2.342 0 0 0 1.171-2.751l-5.403-18.103-.193-.647a2.342 2.342 0 0 1 .943-2.617l6.075-4.058 1.37-.914a2.342 2.342 0 0 0 .938-2.633l-1.984-6.485-.81-2.646A2.342 2.342 0 0 1 65.14 61.1l17.691-6.937.896-.352a2.342 2.342 0 0 0 1.328-3.025l-2.544-6.575-.369-.951a2.342 2.342 0 0 1 1.265-3l41.649-17.779 4.539 9.252a2.342 2.342 0 0 0 2.991 1.136l16.069-6.589a2.342 2.342 0 0 1 3.044 1.252l3.475 8.184a2.342 2.342 0 0 0 2.96 1.284l6.446-2.358a2.341 2.341 0 0 1 3.05 1.537l5.623 19.057a2.341 2.341 0 0 0 3.152 1.497l5.745-2.413a2.342 2.342 0 0 1 3.157 1.51l13.384 46.327a2.342 2.342 0 0 1-1.326 2.802l-7.175 3.079a2.342 2.342 0 0 0-1.3 2.887l6.777 20.509a2.342 2.342 0 0 1-1.308 2.89l-8.478 3.6a2.34 2.34 0 0 0-1.338 2.792l1.998 7.075a2.342 2.342 0 0 1-1.387 2.812l-16.755 6.673a2.342 2.342 0 0 0-1.405 2.744l2.194 8.776Z"/><path fill="#150F1B" d="M54.287 108.615a2.342 2.342 0 0 0-1.162 2.781l.488 1.559-37.384-7.376-.36-1.246a2.342 2.342 0 0 1 1.22-2.751l7.866-3.86 35.259 7.837-5.927 3.056ZM58.166 80.701a2.342 2.342 0 0 0-.943 2.617l.193.647-36.638-8.143-.214-.784a2.342 2.342 0 0 1 .82-2.464l5.45-4.244 37.407 8.313-6.075 4.058ZM65.14 61.1a2.342 2.342 0 0 0-1.384 2.865l.809 2.646-36.271-8.061-.37-2.765a2.342 2.342 0 0 1 1.407-2.465l16.9-7.176 36.6 8.019-17.69 6.937ZM125.056 22.481l-41.65 17.78a2.342 2.342 0 0 0-1.264 2.999l.369.951-36.012-8.003-.327-.999a2.342 2.342 0 0 1 1.286-2.873L87.779 14.66c.456-.2.963-.25 1.449-.142l35.828 7.963Z"/><path stroke="#ED632B" d="m67.734 158.074 7.658-2.876a2.343 2.343 0 0 1 3.074 1.546l5.6 19.513a2.341 2.341 0 0 0 3.03 1.562l6.016-2.127a2.34 2.34 0 0 1 2.926 1.269l3.266 7.464a2.343 2.343 0 0 0 2.991 1.246l16.799-6.503a2.341 2.341 0 0 1 2.997 1.261l2.929 6.825a2.341 2.341 0 0 0 3.071 1.23l39.745-16.966a2.342 2.342 0 0 0 1.352-2.722l-2.194-8.776a2.342 2.342 0 0 1 1.405-2.744l16.755-6.673a2.342 2.342 0 0 0 1.387-2.812l-1.998-7.075a2.34 2.34 0 0 1 1.338-2.792l8.478-3.6a2.342 2.342 0 0 0 1.308-2.89l-6.777-20.509a2.342 2.342 0 0 1 1.3-2.887l7.175-3.079a2.342 2.342 0 0 0 1.326-2.802l-13.384-46.328a2.342 2.342 0 0 0-3.157-1.509l-5.745 2.413a2.341 2.341 0 0 1-3.152-1.497L167.63 36.18a2.341 2.341 0 0 0-3.05-1.537L158.134 37a2.342 2.342 0 0 1-2.96-1.284l-3.475-8.184a2.342 2.342 0 0 0-3.044-1.252l-16.069 6.589a2.342 2.342 0 0 1-2.991-1.136l-4.539-9.252M67.734 158.074l-37.505-8.336a2.339 2.339 0 0 1-1.742-1.637l-12.258-42.522m51.505 52.495-14.121-45.119m71.443-90.474-41.65 17.78a2.342 2.342 0 0 0-1.264 2.999l.369.951m42.545-21.73-35.828-7.963a2.342 2.342 0 0 0-1.449.141L47.458 32.337a2.342 2.342 0 0 0-1.286 2.873l.327.999m7.114 76.747-.488-1.559a2.342 2.342 0 0 1 1.162-2.781l5.927-3.056m-6.601 7.396-37.384-7.376m0 0-.36-1.246a2.342 2.342 0 0 1 1.22-2.751l7.866-3.86m32.461-13.757 5.403 18.103a2.342 2.342 0 0 1-1.17 2.751l-1.435.74m-2.798-21.594-.193-.647a2.342 2.342 0 0 1 .943-2.617l6.075-4.058m-6.825 7.322-36.638-8.143m0 0 5.3 19.414c.27.99-.2 2.034-1.123 2.487m-4.177-21.9-.214-.785a2.342 2.342 0 0 1 .82-2.464l5.45-4.244m37.731-1.72 1.984 6.486a2.342 2.342 0 0 1-.939 2.633l-1.369.914m.324-10.032-.81-2.646A2.342 2.342 0 0 1 65.14 61.1l17.691-6.937M64.565 66.61 28.294 58.55m0 0 .867 6.497a2.342 2.342 0 0 1-.882 2.157l-1.445 1.126m1.46-9.78-.37-2.765a2.342 2.342 0 0 1 1.407-2.465l16.9-7.176m36.28-1.933 2.544 6.575a2.342 2.342 0 0 1-1.328 3.025l-.896.352m-.32-9.952-36.012-8.003m0 0 2.154 6.58a2.342 2.342 0 0 1-1.31 2.884l-1.112.472m13.983 59.415-35.259-7.836m39.286-21.08L26.834 68.33M82.83 54.163l-36.6-8.02"/><rect width="11.489" height="37.13" x="-.316" y=".633" fill="#ED632B" stroke="#ED632B" rx="1.842" transform="scale(-1 1) rotate(18.47 -280.937 -276.703)"/><rect width="11.489" height="37.13" x="-.316" y=".633" fill="#ED632B" stroke="#ED632B" rx="1.842" transform="scale(-1 1) rotate(18.47 -253.216 -389.898)"/><mask id="path-5-inside-1_464_136" fill="#fff"><path fill-rule="evenodd" d="M103.616 149.621a2.341 2.341 0 0 0 2.926 1.552l7.463-2.288a2.343 2.343 0 0 0 1.552-2.926l-2.116-6.901a2.34 2.34 0 0 1 1.379-2.864l39.436-15.567a2.342 2.342 0 0 1 3.099 1.491l2.08 6.783a2.34 2.34 0 0 0 2.925 1.552l7.463-2.288a2.34 2.34 0 0 0 1.552-2.926l-2.288-7.463a2.342 2.342 0 0 0-2.926-1.552l-7.422 2.276a2.342 2.342 0 0 1-2.865-1.379l-2.632-6.668a2.341 2.341 0 0 0-3.038-1.318l-39.836 15.724a2.341 2.341 0 0 0-1.318 3.038l2.395 6.068a2.341 2.341 0 0 1-1.492 3.098l-7.073 2.17a2.34 2.34 0 0 0-1.552 2.925l2.288 7.463Z" clip-rule="evenodd"/></mask><path fill="#ED632B" fill-rule="evenodd" d="M103.616 149.621a2.341 2.341 0 0 0 2.926 1.552l7.463-2.288a2.343 2.343 0 0 0 1.552-2.926l-2.116-6.901a2.34 2.34 0 0 1 1.379-2.864l39.436-15.567a2.342 2.342 0 0 1 3.099 1.491l2.08 6.783a2.34 2.34 0 0 0 2.925 1.552l7.463-2.288a2.34 2.34 0 0 0 1.552-2.926l-2.288-7.463a2.342 2.342 0 0 0-2.926-1.552l-7.422 2.276a2.342 2.342 0 0 1-2.865-1.379l-2.632-6.668a2.341 2.341 0 0 0-3.038-1.318l-39.836 15.724a2.341 2.341 0 0 0-1.318 3.038l2.395 6.068a2.341 2.341 0 0 1-1.492 3.098l-7.073 2.17a2.34 2.34 0 0 0-1.552 2.925l2.288 7.463Z" clip-rule="evenodd"/><path fill="#ED632B" d="m101.328 142.158-.956.293.956-.293Zm8.625-5.095-.293-.956.293.956Zm43.289-26.61-.93.367.93-.367Zm-3.038-1.318-.367-.931.367.931Zm8.535 9.365-.293-.956.293.956Zm-2.865-1.379-.93.368.93-.368Zm13.213.655.956-.293-.956.293Zm-2.926-1.552-.293-.956.293.956Zm3.662 11.941.293.956-.293-.956Zm1.552-2.926-.956.293.956-.293Zm-9.015 5.214.294.957-.294-.957Zm-8.104-9.826.367.93-.367-.93Zm3.099 1.491-.956.294.956-.294Zm-43.914 16.94-.957.294.957-.294Zm-6.899 12.115-.293-.956.293.956Zm7.463-2.288-.294-.956.294.956Zm1.552-2.926-.956.293.956-.293Zm-1.259 3.882-7.463 2.288-.586-1.912 7.462-2.288.587 1.912Zm.099-11.076 2.116 6.901-1.912.586-2.117-6.9 1.913-.587Zm.055-3.502 39.437-15.566.734 1.86-39.436 15.567-.735-1.861Zm44.027-6.069-2.08-6.782 1.912-.587 2.08 6.783-1.912.586Zm11.637-.073-7.462 2.289-.587-1.913 7.463-2.288.586 1.912Zm-.073-11.638 2.289 7.463-1.913.586-2.288-7.462 1.912-.587Zm-11.597.061 7.422-2.276.587 1.912-7.423 2.276-.586-1.912Zm-3.502-.055-2.632-6.669 1.86-.734 2.632 6.668-1.86.735Zm-4.373-7.424-39.836 15.724-.734-1.86 39.836-15.725.734 1.861ZM109.98 127.53l2.395 6.068-1.86.734-2.395-6.068 1.86-.734Zm-7.393 10.747 7.073-2.17.587 1.913-7.074 2.169-.586-1.912Zm.073 11.637-2.288-7.463 1.912-.586 2.288 7.463-1.912.586Zm.513-9.725a1.341 1.341 0 0 0-.889 1.676l-1.912.586a3.34 3.34 0 0 1 2.215-4.174l.586 1.912Zm9.202-6.591a3.342 3.342 0 0 1-2.128 4.422l-.587-1.913a1.342 1.342 0 0 0 .855-1.775l1.86-.734Zm-1.64-7.809a1.342 1.342 0 0 0-.755 1.741l-1.86.734a3.34 3.34 0 0 1 1.881-4.335l.734 1.86Zm41.577-14.969a1.342 1.342 0 0 0-1.741-.755l-.734-1.861a3.342 3.342 0 0 1 4.335 1.882l-1.86.734Zm6.72 8.636a3.341 3.341 0 0 1-4.088-1.967l1.86-.735c.258.652.972.996 1.642.79l.586 1.912Zm9.099-1.386a1.342 1.342 0 0 0-1.676-.89l-.587-1.912a3.342 3.342 0 0 1 4.175 2.215l-1.912.587Zm1.399 9.139a1.341 1.341 0 0 0 .889-1.677l1.913-.586a3.342 3.342 0 0 1-2.216 4.175l-.586-1.912Zm-9.139 1.399a1.341 1.341 0 0 0 1.676.889l.587 1.913a3.342 3.342 0 0 1-4.175-2.216l1.912-.586Zm-6.502-8.911a3.341 3.341 0 0 1 4.422 2.128l-1.912.587a1.343 1.343 0 0 0-1.776-.855l-.734-1.86Zm-41.405 19.655a3.343 3.343 0 0 1 1.968-4.089l.735 1.861a1.34 1.34 0 0 0-.79 1.641l-1.913.587Zm-5.649 12.777a3.34 3.34 0 0 1-4.175-2.215l1.912-.586a1.342 1.342 0 0 0 1.677.889l.586 1.912Zm6.876-4.2a1.343 1.343 0 0 0 .89-1.677l1.912-.586a3.343 3.343 0 0 1-2.215 4.175l-.587-1.912Z" mask="url(#path-5-inside-1_464_136)"/></svg>